<svg id="Layer_1" data-name="Layer 1" xmlns="http://www.w3.org/2000/svg" xmlns:xlink="http://www.w3.org/1999/xlink" viewBox="0 0 570 753.9"><defs><style>.cls-1{fill:none;}.cls-2{clip-path:url(#clip-path);}.cls-3{fill:#7263d2;}.cls-4{fill:#a59ce2;}.cls-5{fill:#877ad8;}.cls-6{fill:#a096e0;}.cls-7{fill:#eae8f8;}.cls-8{fill:#fdfdfd;}.cls-9{fill:#dbd7f3;}.cls-10{fill:#8c80da;}.cls-11{fill:#7769d3;}.cls-12{fill:#5e4dcb;}.cls-13{fill:#4b39c2;}.cls-14{fill:#887cd9;}.cls-15{fill:#bab3e9;}.cls-16{fill:#7f72d6;}.cls-17{fill:#aea6e5;}.cls-18{fill:#5341c8;}.cls-19{fill:#444747;}.cls-20{fill:#dedeff;}.cls-21{fill:#9b90df;}.cls-22{fill:#4a38c0;}.cls-23{fill:#5847ca;}.cls-24{fill:#f0f0ff;}.cls-25{fill:#f9762d;}.cls-26{fill:#f0eff9;}.cls-27{fill:#7364d2;}.cls-28{fill:#c8c6f7;}.cls-29{fill:#b5ade7;}.cls-30{fill:#72515e;}.cls-31{fill:#8275d7;}.cls-32{fill:#a49be2;}.cls-33{fill:#958add;}.cls-34{fill:#bcb5e9;}.cls-35{fill:#6f60d1;}.cls-36{fill:#4b39c3;}.cls-37{fill:#cecedb;}.cls-38{fill:#a5a5af;}.cls-39{fill:#897dd9;}.cls-40{fill:#b1a9e6;}.cls-41{fill:#364760;}.cls-42{fill:#98939e;}.cls-43{fill:#e8e8e8;}.cls-44{fill:#d8d8d8;}.cls-45{fill:#7f7e89;}.cls-46{fill:#7566d3;}.cls-47{fill:url(#linear-gradient);}.cls-48{fill:url(#linear-gradient-2);}.cls-49{fill:#7e71d6;}.cls-50{fill:url(#linear-gradient-3);}.cls-51{fill:url(#linear-gradient-4);}.cls-52{fill:#4b39c0;}.cls-53{fill:#515656;}.cls-54{fill:#c8ccd3;}.cls-55{fill:#8e80eb;}.cls-56{fill:#4f5656;}.cls-57{fill:url(#linear-gradient-5);}.cls-58{fill:url(#linear-gradient-6);}.cls-59{fill:url(#linear-gradient-7);}</style><clipPath id="clip-path" transform="translate(-375 -98)"><rect class="cls-1" width="960" height="944"/></clipPath><linearGradient id="linear-gradient" x1="169.73" y1="870.86" x2="178.05" y2="870.86" gradientTransform="matrix(39.25, 0, 0, -22.64, -6415.66, 19824.52)" gradientUnits="userSpaceOnUse"><stop offset="0" stop-color="#fff"/><stop offset="1"/></linearGradient><linearGradient id="linear-gradient-2" x1="169.73" y1="870.86" x2="178.05" y2="870.86" gradientTransform="matrix(39.25, 0, 0, -22.64, -6461.54, 20066.89)" xlink:href="#linear-gradient"/><linearGradient id="linear-gradient-3" x1="169.73" y1="870.86" x2="178.05" y2="870.86" gradientTransform="matrix(39.25, 0, 0, -22.64, -6519.16, 20357.76)" xlink:href="#linear-gradient"/><linearGradient id="linear-gradient-4" x1="169.73" y1="870.86" x2="178.05" y2="870.86" gradientTransform="matrix(39.25, 0, 0, -22.64, -6344.12, 20340.09)" xlink:href="#linear-gradient"/><linearGradient id="linear-gradient-5" x1="170.87" y1="869.5" x2="170.87" y2="860.6" gradientTransform="matrix(47.89, 0, 0, -47.97, -7730.46, 42030.47)" xlink:href="#linear-gradient"/><linearGradient id="linear-gradient-6" x1="169.08" y1="870.25" x2="169.14" y2="861.01" gradientTransform="matrix(32.12, 0, 0, -36.37, -4793.18, 31767.07)" xlink:href="#linear-gradient"/><linearGradient id="linear-gradient-7" x1="169.57" y1="870.21" x2="169.57" y2="860.92" gradientTransform="matrix(35.31, 0, 0, -36.2, -5280.99, 32127.15)" xlink:href="#linear-gradient"/></defs><title>estimate</title><g class="cls-2"><g id="Mask_Group_7" data-name="Mask Group 7"><g id="Group_6464" data-name="Group 6464"><g id="Group_1908" data-name="Group 1908"><path id="_Path_4" data-name=" Path 4" class="cls-3" d="M636.5,586v7.39l-89.36,53.77-90-44.72v-7.39Z" transform="translate(-375 -98)"/><path id="_Path_5" data-name=" Path 5" class="cls-4" d="M547.14,541.9,636.5,586l-89.36,53.77-90-44.72Z" transform="translate(-375 -98)"/><path id="_Path_6" data-name=" Path 6" class="cls-5" d="M457.14,595.05l90,44.72v7.39l-90-44.72Z" transform="translate(-375 -98)"/><path id="_Path_7" data-name=" Path 7" class="cls-3" d="M928.49,314.68v7.4l-89.36,53.76-90-44.72v-7.39Z" transform="translate(-375 -98)"/><path id="_Path_8" data-name=" Path 8" class="cls-4" d="M839.13,270.59l89.36,44.1-89.36,53.76-90-44.72Z" transform="translate(-375 -98)"/><path id="_Path_9" data-name=" Path 9" class="cls-5" d="M749.1,323.73l90,44.72v7.39l-90-44.72Z" transform="translate(-375 -98)"/><path id="_Path_10" data-name=" Path 10" class="cls-3" d="M945,683.4v7.39l-89.36,53.76-90-44.71v-7.37Z" transform="translate(-375 -98)"/><path id="_Path_11" data-name=" Path 11" class="cls-4" d="M855.64,639.3,945,683.4l-89.36,53.76-90-44.69Z" transform="translate(-375 -98)"/><path id="_Path_12" data-name=" Path 12" class="cls-5" d="M765.61,692.47l90,44.69v7.39l-90-44.72Z" transform="translate(-375 -98)"/><path id="_Path_13" data-name=" Path 13" class="cls-3" d="M407.46,633.93l30.23,15,29.24-18.51v-7L407.46,627Z" transform="translate(-375 -98)"/><path id="_Path_14" data-name=" Path 14" class="cls-4" d="M407.46,627l30.23,15,29.24-18.53-31.57-15.38Z" transform="translate(-375 -98)"/><path id="_Path_15" data-name=" Path 15" class="cls-5" d="M437.69,648.94v-7l-30.23-15v7Z" transform="translate(-375 -98)"/><path id="_Path_16" data-name=" Path 16" class="cls-3" d="M524.13,246.66l30.23,15,29.24-18.51v-7l-59.47,3.54Z" transform="translate(-375 -98)"/><path id="_Path_17" data-name=" Path 17" class="cls-4" d="M524.13,239.69l30.23,15,29.24-18.54-31.54-15.37Z" transform="translate(-375 -98)"/><path id="_Path_18" data-name=" Path 18" class="cls-5" d="M554.36,261.67v-7l-30.23-15v7Z" transform="translate(-375 -98)"/><path id="_Path_19" data-name=" Path 19" class="cls-3" d="M874.45,632.18l30.23,15,29.25-18.54v-7l-59.48,3.51Z" transform="translate(-375 -98)"/><path id="_Path_20" data-name=" Path 20" class="cls-4" d="M874.45,625.18l30.23,15,29.25-18.51-31.55-15.4Z" transform="translate(-375 -98)"/><path id="_Path_21" data-name=" Path 21" class="cls-5" d="M904.68,647.18v-7l-30.23-15v7Z" transform="translate(-375 -98)"/><path id="_Path_22" data-name=" Path 22" class="cls-6" d="M698.15,519.93l17-10.26v-11.1l-17,10.36Z" transform="translate(-375 -98)"/><path id="_Path_23" data-name=" Path 23" class="cls-7" d="M698.15,519.93l-18.39-8.83v-11l18.39,8.83Z" transform="translate(-375 -98)"/><path id="_Path_24" data-name=" Path 24" class="cls-8" d="M698.15,508.93l-18.39-8.83L697,489.7l18.12,8.87Z" transform="translate(-375 -98)"/><path id="_Path_25" data-name=" Path 25" class="cls-9" d="M683.47,499.78l14.68,6.85,13.2-8.06L697,491.87Z" transform="translate(-375 -98)"/><path id="_Path_26" data-name=" Path 26" class="cls-10" d="M698.15,519.93h14.09l18-10.41-15.18-7.17v7.32Z" transform="translate(-375 -98)"/><path id="_Path_27" data-name=" Path 27" class="cls-6" d="M845.92,701.66l34.54-20.89V658.18l-34.54,21.11Z" transform="translate(-375 -98)"/><path id="_Path_28" data-name=" Path 28" class="cls-7" d="M845.93,701.66l-37.48-17.94V661.3l37.48,18Z" transform="translate(-375 -98)"/><path id="_Path_29" data-name=" Path 29" class="cls-8" d="M845.93,679.29l-37.48-18,35.1-21.18,36.91,18.07Z" transform="translate(-375 -98)"/><path id="_Path_30" data-name=" Path 30" class="cls-9" d="M816,660.63l29.91,14,26.9-16.42-29.27-13.62Z" transform="translate(-375 -98)"/><path id="_Path_31" data-name=" Path 31" class="cls-10" d="M845.92,701.66h12.31l41.83-25.14-19.6-8.47v12.73Z" transform="translate(-375 -98)"/><path id="_Path_32" data-name=" Path 32" class="cls-11" d="M809.41,574.51c3.32,2.77,24.2,12.19,24.2,12.19a17,17,0,0,0,8.19.4c4.6-.89,61.4-35,61.4-35s5.39-4.35,3.83-6.68S885.47,530,885.47,530l-77.64,35.5v5.78l.55,1.66Z" transform="translate(-375 -98)"/><path id="_Path_33" data-name=" Path 33" class="cls-12" d="M840.9,571.35s6.53.4,7.79,1.4,2,2.82,3.07,3.19,2.2.2,4.7-1.08,7.41-8.24,7.41-8.24l-10.55-8.3-13.8,7Z" transform="translate(-375 -98)"/><path id="_Path_34" data-name=" Path 34" class="cls-12" d="M886.69,545.17s4.94-1.54,6.38,0,2.17,3.31,3.18,3.58a7.34,7.34,0,0,0,3.14-.62,36.63,36.63,0,0,0,2.72-5.9,63.85,63.85,0,0,0-1.93-6.78l-8.18-.52-4.6,3.59Z" transform="translate(-375 -98)"/><path id="_Path_35" data-name=" Path 35" class="cls-13" d="M849.46,577c-.77,2.22-.69,6-2.27,6.7-.89.34-3.37-1.83-4.2-2.25-2.48-1.29-3.17-5.66-1.36-9.3,1.63-3.26,4.5-4.42,6.45-3,1,.74,3.48,1.83,3.66,3.41S850,575.6,849.46,577Z" transform="translate(-375 -98)"/><path id="_Path_36" data-name=" Path 36" class="cls-13" d="M893.76,550.56c-.77,2.22-.69,6.05-2.28,6.7-.89.34-3.36-1.83-4.2-2.25-2.47-1.29-3.16-5.66-1.33-9.3,1.63-3.26,4.5-4.42,6.45-3,1,.74,3.48,1.83,3.66,3.41S894.23,549.15,893.76,550.56Z" transform="translate(-375 -98)"/><path id="_Path_37" data-name=" Path 37" class="cls-14" d="M807.59,570.55l21.5,10.76a28,28,0,0,0,7.66,1c2.3-.4,5.12-.57,5.49-1.93s1-8,2.47-10.16a10.35,10.35,0,0,1,7.17-3.8c1.54.4,1.64,1,1.64,2.74v3.58s0,2.7,1.53,2.7,30.53-17.3,30.53-17.3a14.08,14.08,0,0,0,1.73-4.23,41.66,41.66,0,0,1,2.1-8.82,12,12,0,0,1,6.52-4.4c2-.25,2.2,1.13,2.3,2.1a11.24,11.24,0,0,1,0,2.17s-1.16,3,0,3.39,4.2-2.3,4.95-3.64a18,18,0,0,0,3.63-10.53c0-4.62.2-7.29-1.33-8.62s-25.09-13-26.63-13.43a5,5,0,0,0-4,0c-1.53.77-8.82,3.27-8.82,3.27l-6.33-3.71a4.93,4.93,0,0,0-3.26,0c-1.53.64-24.33,13.47-24.33,13.47l-11.22,17s-15.72,11.13-16.49,13.23a19.17,19.17,0,0,0-1,8.23,8.61,8.61,0,0,0,1.33,4.6A18,18,0,0,0,807.59,570.55Z" transform="translate(-375 -98)"/><path id="_Path_38" data-name=" Path 38" class="cls-15" d="M804.37,555.33l28.2,15,17.53-12.11L848,555.65l-26.22-12.9-.87-.64s-8.11,5.78-8.45,6a90.06,90.06,0,0,0-7.42,6.38C803.34,556.34,804.37,555.33,804.37,555.33Z" transform="translate(-375 -98)"/><path id="_Path_39" data-name=" Path 39" class="cls-15" d="M906.46,527.12a3.19,3.19,0,0,0-.94-1.48c-1.53-1.34-25.09-13-26.62-13.42a4.88,4.88,0,0,0-4,0,46.31,46.31,0,0,1-4.42,1.7l31.07,15.8Z" transform="translate(-375 -98)"/><path id="_Path_40" data-name=" Path 40" class="cls-16" d="M905.55,525.61l-.27-.2a2.29,2.29,0,0,1-1,1.73l-9.07,3.93-1.53.67-10.73-8.13-26.3,13.64-8.21,20.89s-14.21,11.13-15.37,11.5-1.66-.13-1.66-.13S808,557.3,806.28,556.29s-1.66-1.26-1.61-1.54c-.27.32-.2.28-.25.45a19.32,19.32,0,0,0-1,8.23,8.61,8.61,0,0,0,1.33,4.6,18.91,18.91,0,0,0,2.82,2.47l21.51,10.75a27.52,27.52,0,0,0,7.66,1c2.3-.4,5.12-.57,5.49-1.93s1-8.06,2.47-10.16a10.36,10.36,0,0,1,7.17-3.81c1.53.4,1.63,1,1.63,2.75v3.58s0,2.7,1.53,2.7,30.53-17.3,30.53-17.3a13.93,13.93,0,0,0,1.73-4.23,42.52,42.52,0,0,1,2.1-8.83,12,12,0,0,1,6.53-4.4c2-.24,2.2,1.14,2.3,2.1a13.22,13.22,0,0,1,0,2.18s-1.16,3,0,3.39,4.2-2.3,4.94-3.64a18.12,18.12,0,0,0,3.64-10.53C906.86,529.62,907.08,527,905.55,525.61Z" transform="translate(-375 -98)"/><g id="_Group_" data-name=" Group "><path id="_Path_41" data-name=" Path 41" class="cls-17" d="M893.56,541.53" transform="translate(-375 -98)"/><path id="_Path_42" data-name=" Path 42" class="cls-17" d="M905.42,531.87c-.37,2.3-1.06,1.48-2.3,4.23-.81,1.78-4.54,3.51-7.09,4.52,1.93-.22,2.15,1.14,2.25,2.1a11.34,11.34,0,0,1,0,2.18s-1.16,3,0,3.38,4.2-2.3,4.94-3.63a18.14,18.14,0,0,0,3.64-10.53c0-4.62.34-7.42-1.63-8.7a30.9,30.9,0,0,1,.2,6.45Z" transform="translate(-375 -98)"/><path id="_Path_43" data-name=" Path 43" class="cls-17" d="M887.36,553.84a42,42,0,0,1,2.1-8.82,10.82,10.82,0,0,1,3.65-3.24L847.8,567.56h0a7.16,7.16,0,0,1,4.1-1.26c1.54.37,1.64,1,1.64,2.72v3.58s0,2.7,1.53,2.7S885.6,558,885.6,558A13.91,13.91,0,0,0,887.36,553.84Z" transform="translate(-375 -98)"/></g><path id="_Path_44" data-name=" Path 44" class="cls-17" d="M847.88,567.22s-5.34,4.08-7.69,5.43a9.11,9.11,0,0,1-8.63.38l-.47,3.46.62,4.94a17.65,17.65,0,0,0,5.12.45c2.3-.4,5.11-.57,5.49-1.93s1-8.06,2.47-10.16a10,10,0,0,1,3.06-2.47Z" transform="translate(-375 -98)"/><path id="_Path_45" data-name=" Path 45" class="cls-14" d="M834.48,580.61c-2.27-1.6-1.83-1.45-2.32-3.56a35.08,35.08,0,0,1,1.16-7.41,2.5,2.5,0,0,1-2-.2s-23.44-12.21-25.12-13.22-1.65-1.26-1.6-1.54c-.27.33-.2.28-.25.45a19,19,0,0,0-1,8.23,8.61,8.61,0,0,0,1.33,4.6,18.36,18.36,0,0,0,2.82,2.47l21.51,10.76a27.89,27.89,0,0,0,7.66,1l1.73-.27a10.31,10.31,0,0,1-4-1.31Z" transform="translate(-375 -98)"/><path id="_Path_46" data-name=" Path 46" class="cls-12" d="M821.73,542.72l10.2-15.08A92.37,92.37,0,0,0,842.29,533c6.65,2.94,13.08,5.21,13.08,5.21L848,555.52s-9.89-4.62-14.09-6.85S821.73,542.72,821.73,542.72Z" transform="translate(-375 -98)"/><path id="_Path_47" data-name=" Path 47" class="cls-18" d="M864.44,533.92c0,.4,4,12.24,4,12.24l-1.78,1-12.48,7.17s-2,.74-2.62,0,0-2.15,0-2.15l5.86-14.54Z" transform="translate(-375 -98)"/><path id="_Path_48" data-name=" Path 48" class="cls-18" d="M866.19,533.25,871,544.9l13.25-7.62-5.64-10.68Z" transform="translate(-375 -98)"/><path id="_Path_49" data-name=" Path 49" class="cls-18" d="M880,525.94l6,10.28,6.9-4a89.89,89.89,0,0,0-9.44-7.14A4.69,4.69,0,0,0,880,525.94Z" transform="translate(-375 -98)"/><path id="_Path_50" data-name=" Path 50" class="cls-19" d="M868.59,552.93a2.61,2.61,0,0,1-2.3.76,1.56,1.56,0,0,1-1.13-1.53,2.34,2.34,0,0,1,1.31-1.46,1.83,1.83,0,0,1,1.5-.14,1.43,1.43,0,0,1,1.07,1.53,1.54,1.54,0,0,1-.45.84Z" transform="translate(-375 -98)"/><path id="_Path_51" data-name=" Path 51" class="cls-20" d="M866.17,553.47a21.94,21.94,0,0,0,2.47-1.46s.67-.71.35-1.13-2.75,1.31-2.75,1.31-1.63.52-.84,1S866.17,553.47,866.17,553.47Z" transform="translate(-375 -98)"/><path id="_Path_52" data-name=" Path 52" class="cls-19" d="M884.41,544.13a2.61,2.61,0,0,1-2.3.76,1.56,1.56,0,0,1-1.13-1.53,2.34,2.34,0,0,1,1.31-1.46,1.83,1.83,0,0,1,1.5-.14,1.43,1.43,0,0,1,1.07,1.53A1.54,1.54,0,0,1,884.41,544.13Z" transform="translate(-375 -98)"/><path id="_Path_53" data-name=" Path 53" class="cls-20" d="M882,544.67a22.86,22.86,0,0,0,2.47-1.46s.67-.71.34-1.13-2.74,1.31-2.74,1.31-1.63.52-.84,1S882,544.67,882,544.67Z" transform="translate(-375 -98)"/><path id="_Compound_Path_" data-name=" Compound Path " class="cls-19" d="M855.86,573.25v-1.73s-1.55-11.27-2.67-13.15a7.34,7.34,0,0,0-3.78-2.62h-.15l7.25-18.47h0l8.62-4.5,5.86,15.3.87,16.37h0Zm-6.25-17.7a7.35,7.35,0,0,1,3.78,2.72c1.16,1.93,2.65,12.8,2.72,13.27v1.29l15.45-8.53-.77-16.22-5.73-14.83-8.31,4.35Z" transform="translate(-375 -98)"/><path id="_Compound_Path_2" data-name=" Compound Path 2" class="cls-19" d="M871.58,564.57v-.12l-.79-16.29L865,533,879,525.54l8.53,15h0a16,16,0,0,0-2.15,5c-.49,2.47-1,11.12-1,11.22h0ZM865.28,533,871,548l.77,16.09,12.36-7.41c0-.84.49-8.78,1-11.2a16,16,0,0,1,2.15-5l-.59-1.09L879,525.91Z" transform="translate(-375 -98)"/><path id="_Path_54" data-name=" Path 54" class="cls-14" d="M821.48,543.51a3.82,3.82,0,0,0,1,2.65c1,.76,18.91,9.46,18.91,9.46a5.34,5.34,0,0,0,2.18,0l1-.24Z" transform="translate(-375 -98)"/><path id="_Path_55" data-name=" Path 55" class="cls-15" d="M832.16,525.24a44.06,44.06,0,0,0,10.7,6.13c6.23,2.87,13.74,6,13.74,6l26.3-13.72-21.75-11a9.4,9.4,0,0,0-2.75-1.11,11.28,11.28,0,0,0-4.7,1.78C853.44,513.35,832.16,525.24,832.16,525.24Z" transform="translate(-375 -98)"/><path id="_Path_56" data-name=" Path 56" class="cls-18" d="M852.35,578.88c-1.16,3.49-4,5.66-6.35,4.48s-3.16-5.66-1.41-9.32c1.58-3.26,4.4-4.48,6.36-3A7.25,7.25,0,0,1,852.35,578.88Z" transform="translate(-375 -98)"/><path id="_Path_57" data-name=" Path 57" class="cls-21" d="M850.8,578.32c-.72,2.12-2.48,3.48-3.91,2.74s-1.95-3.49-.87-5.71,2.7-2.74,3.91-1.88A4.49,4.49,0,0,1,850.8,578.32Z" transform="translate(-375 -98)"/><path id="_Path_58" data-name=" Path 58" class="cls-18" d="M897.24,552.63c-1.16,3.49-4,5.66-6.35,4.48s-3.17-5.66-1.41-9.32c1.58-3.27,4.4-4.48,6.35-3A7.26,7.26,0,0,1,897.24,552.63Z" transform="translate(-375 -98)"/><path id="_Path_59" data-name=" Path 59" class="cls-21" d="M895.69,552.09c-.72,2.13-2.48,3.48-3.91,2.74s-1.95-3.48-.87-5.71,2.7-2.74,3.91-1.88A4.5,4.5,0,0,1,895.69,552.09Z" transform="translate(-375 -98)"/><path id="_Path_60" data-name=" Path 60" class="cls-10" d="M832,527.69l-10.21,15.08,4.08,2a23.18,23.18,0,0,0,14.83-2.62,16.18,16.18,0,0,0,7.42-6.72h0c-1.76-.7-3.66-1.51-5.59-2.48A89.89,89.89,0,0,1,832,527.69Z" transform="translate(-375 -98)"/><path id="_Path_61" data-name=" Path 61" class="cls-22" d="M852.87,554a2.78,2.78,0,0,0,3,1.78c2.47-.17,2.47-.89,2.47-.89a3.08,3.08,0,0,0-1.71-2.47,25.94,25.94,0,0,0-3.83-1.34l-.49.77,1.14.52Z" transform="translate(-375 -98)"/><path id="_Path_62" data-name=" Path 62" class="cls-23" d="M821.5,541.06a1.78,1.78,0,0,1-1.55-1.33,5.44,5.44,0,0,1,0-2.05s.86-.89,1.68-.42l1.83,1Z" transform="translate(-375 -98)"/><path id="_Path_63" data-name=" Path 63" class="cls-11" d="M803.31,560.05s0,1.33,3.36,3.19c1.44.79,20.49,10.65,21.88,11.37a6.47,6.47,0,0,0,3.63,1,3.81,3.81,0,0,0,3.73-2.47,35.22,35.22,0,0,0,.38-3.83l-1.59,2-1.83.49-3.65-1.55-2.87-2-14.12-7.42-2.47-1.26-4.18-1-1.4-3-.72,3Z" transform="translate(-375 -98)"/><path id="_Path_64" data-name=" Path 64" class="cls-24" d="M836.29,569.39a5.55,5.55,0,0,1-1.86,1l-1.7.49-4.33-1.41-2-1.09L825,571.71l4.82,2.35a9.14,9.14,0,0,0,2.94.42c.89-.17,2.47-.24,3-1a11.78,11.78,0,0,0,.5-4.13Z" transform="translate(-375 -98)"/><path id="_Path_65" data-name=" Path 65" class="cls-24" d="M804.23,555.75a21.43,21.43,0,0,0,2.15,1.88c.84.57,3.43,2.07,3.43,2.07L808.75,563a26,26,0,0,1-4.23-2.64,4.71,4.71,0,0,1-1-1.66,7.28,7.28,0,0,1,.4-1.85A4,4,0,0,0,804.23,555.75Z" transform="translate(-375 -98)"/><path id="_Path_66" data-name=" Path 66" class="cls-25" d="M834.44,570.43l-1.34.4-.74,3.73h.42c.89-.17,2.47-.24,3-1a11.77,11.77,0,0,0,.49-4.13A5.31,5.31,0,0,1,834.44,570.43Z" transform="translate(-375 -98)"/><path id="_Path_67" data-name=" Path 67" class="cls-18" d="M903.47,534.24s-.32,1.93.4,2.62a2.18,2.18,0,0,0,2.23.49c.54-.22.57-.49.57-.49a15.31,15.31,0,0,0,.22-2.25,15.91,15.91,0,0,0-.47-3h-1.29Z" transform="translate(-375 -98)"/><path id="_Path_68" data-name=" Path 68" class="cls-15" d="M906.46,527.12a1.33,1.33,0,0,1-.81,1.71h0a4.1,4.1,0,0,1-2.16.32v4.77a2.49,2.49,0,0,0,.77,1.83c1.56,1.16,2.65-.82,2.65-.82v-5.85Z" transform="translate(-375 -98)"/><path id="_Path_69" data-name=" Path 69" class="cls-26" d="M906.88,533.05a8.52,8.52,0,0,1-1.23.94,3.39,3.39,0,0,1-2.18,0,2.47,2.47,0,0,0,.77,1.83c1.55,1.16,2.64-.81,2.64-.81Z" transform="translate(-375 -98)"/><path id="_Path_70" data-name=" Path 70" class="cls-27" d="M805.11,568.43s2.48,1.93,2.87.72a5,5,0,0,0,.4-1.9l16.79,8.42a4,4,0,0,0,.34,3,5,5,0,0,0,2.18,1.78l1.55.79-21.77-10.86a10.3,10.3,0,0,1-1.56-1.23A4.57,4.57,0,0,0,805.11,568.43Z" transform="translate(-375 -98)"/><path id="_Path_71" data-name=" Path 71" class="cls-28" d="M810.8,560.22l-1,3.07,13.92,7.29,1.06-3Z" transform="translate(-375 -98)"/><path id="_Path_72" data-name=" Path 72" class="cls-28" d="M905.92,534.51a5.16,5.16,0,0,1-.27,1.56,2.62,2.62,0,0,0,1.26-1.11v-2c-.4.32-.74.61-1,.79S905.92,534.32,905.92,534.51Z" transform="translate(-375 -98)"/><path id="_Path_73" data-name=" Path 73" class="cls-29" d="M879.72,304.06c-.55,0-16.19,9.56-16.19,9.56L880,322.67,896.33,313Z" transform="translate(-375 -98)"/><path id="_Path_74" data-name=" Path 74" class="cls-14" d="M880.09,327.49l-.08-4.82-16.48-9.05.07,5.07Z" transform="translate(-375 -98)"/><path id="_Path_75" data-name=" Path 75" class="cls-3" d="M896.33,313l.07,4.48-16.31,10-.08-4.82Z" transform="translate(-375 -98)"/><path id="_Path_76" data-name=" Path 76" class="cls-30" d="M880.24,271.18v47.46l5.06-3.16,0-47.66Z" transform="translate(-375 -98)"/><path id="_Path_77" data-name=" Path 77" class="cls-31" d="M874.7,268.61l0,47.21,5.57,2.82V271.18Z" transform="translate(-375 -98)"/><path id="_Path_78" data-name=" Path 78" class="cls-31" d="M857.17,258.52l17.5,41.75V291.2l-13.25-32.68Z" transform="translate(-375 -98)"/><path id="_Path_79" data-name=" Path 79" class="cls-32" d="M874.67,282.4l-9.37-23.88h-3.88l13.25,32.68Z" transform="translate(-375 -98)"/><path id="_Path_80" data-name=" Path 80" class="cls-29" d="M863.65,248.39l1.26,13.32,15.33,15.13L885.33,239Z" transform="translate(-375 -98)"/><path id="_Path_81" data-name=" Path 81" class="cls-33" d="M897.61,253.36c-1.23,2.1-17.3,23.48-17.3,23.48l5.1-37.87Z" transform="translate(-375 -98)"/><path id="_Path_82" data-name=" Path 82" class="cls-14" d="M880.24,276.84l17.37-23.48,21.7-11-3,19.38Z" transform="translate(-375 -98)"/><path id="_Path_83" data-name=" Path 83" class="cls-3" d="M863.65,248.39l4.4-13.18L885.33,239Z" transform="translate(-375 -98)"/><path id="_Path_84" data-name=" Path 84" class="cls-14" d="M852.8,224l10.85,24.38,4.4-13.18Z" transform="translate(-375 -98)"/><path id="_Path_85" data-name=" Path 85" class="cls-29" d="M864.74,213.36,852.8,224l15.25,11.2,12.19-15.1Z" transform="translate(-375 -98)"/><path id="_Path_86" data-name=" Path 86" class="cls-14" d="M885.33,239l-5.09-18.86-12.19,15.1Z" transform="translate(-375 -98)"/><path id="_Path_87" data-name=" Path 87" class="cls-3" d="M837,221.52l3.56,6.3L851,246.41s3.39,0,3.56,2a4.3,4.3,0,0,1-1.78,3.39l4.35,6.75,7.42,1.06-1-11.2L852.7,224Z" transform="translate(-375 -98)"/><path id="_Path_88" data-name=" Path 88" class="cls-3" d="M837,237.71l6.8-4.13-3.24-5.76Z" transform="translate(-375 -98)"/><path id="_Path_89" data-name=" Path 89" class="cls-29" d="M851,246.43l-7.25-12.85-6.8,4.13Z" transform="translate(-375 -98)"/><path id="_Path_90" data-name=" Path 90" class="cls-14" d="M837,221.52l5.68-8.16h5.88l-3-5,17.09-23.66h2.12l1.21,1.44-1.18,27.21L852.8,224Z" transform="translate(-375 -98)"/><path id="_Path_91" data-name=" Path 91" class="cls-3" d="M885.33,189.33l12.36,64,21.7-11s-1.44-4.94-2-4.62-7.41,2.84-7.41,2.84l5.51-7L899.91,194l-3.21,1.24,1.78-5.86-2-5.34Z" transform="translate(-375 -98)"/><path id="_Path_92" data-name=" Path 92" class="cls-14" d="M880.24,220.11l5.09-30.78,12.28,64L885.33,239Z" transform="translate(-375 -98)"/><path id="_Path_93" data-name=" Path 93" class="cls-29" d="M900.38,195.49l18.94,11.27-11.89,6.6Z" transform="translate(-375 -98)"/><path id="_Path_94" data-name=" Path 94" class="cls-33" d="M913.88,229.53l2.84-8.18a6.42,6.42,0,0,0,3.39-2.67c1.06-2,0-2.85,0-2.85l-2.87.89,2.15-9.89-12,6.6Z" transform="translate(-375 -98)"/><path id="_Path_95" data-name=" Path 95" class="cls-33" d="M865.92,186.15l19.4,3.19-5.09,30.77-15.5-6.75Z" transform="translate(-375 -98)"/><path id="_Path_96" data-name=" Path 96" class="cls-29" d="M864.71,184.71s5.37-1.78,5.37-3.73v-4.8l2.84,3.39,2.12-1.24,11.23,6.4,6.74-2.84L896.4,184a108,108,0,0,1-11,5.34l-19.43-3.11Z" transform="translate(-375 -98)"/><path id="_Path_97" data-name=" Path 97" class="cls-33" d="M880.24,162.49,875,178.31l11.22,6.4Z" transform="translate(-375 -98)"/><path id="_Path_98" data-name=" Path 98" class="cls-3" d="M893,181.87l.89-2.84-13.64-16.54,6,22.22Z" transform="translate(-375 -98)"/><path id="_Path_99" data-name=" Path 99" class="cls-14" d="M847.41,205.75l-1.36-10.26,5,5.12Z" transform="translate(-375 -98)"/><path id="_Path_100" data-name=" Path 100" class="cls-29" d="M851,192.38l3.81,3.11L851,200.61l-5-5.12Z" transform="translate(-375 -98)"/><path id="_Path_101" data-name=" Path 101" class="cls-29" d="M893.88,212.64l7.57-4-4.4,14.81Z" transform="translate(-375 -98)"/><path id="_Path_102" data-name=" Path 102" class="cls-33" d="M909.85,206.76l-8.4,1.88-4.4,14.81L907.43,216Z" transform="translate(-375 -98)"/><path id="_Path_103" data-name=" Path 103" class="cls-29" d="M902.31,262.53l5.93,9.34,5.64-1.58s1-.12,1.61,1.46,2.27-4.05,2.27-4.05l2.64-1.56-7.09-8.21Z" transform="translate(-375 -98)"/><path id="_Path_104" data-name=" Path 104" class="cls-3" d="M894.75,270.76c.4-.17,13.5,1.11,13.5,1.11l-5.94-9.34Z" transform="translate(-375 -98)"/><path id="_Path_105" data-name=" Path 105" class="cls-29" d="M543.09,586.92c-.52,0-16.19,9.56-16.19,9.56l16.49,9,16.31-9.67Z" transform="translate(-375 -98)"/><path id="_Path_106" data-name=" Path 106" class="cls-14" d="M543.41,610.35l-.07-4.84-16.49-9,.07,5.09Z" transform="translate(-375 -98)"/><path id="_Path_107" data-name=" Path 107" class="cls-3" d="M559.65,595.84l.08,4.48-16.32,10-.07-4.84Z" transform="translate(-375 -98)"/><path id="_Path_108" data-name=" Path 108" class="cls-30" d="M543.56,554v47.44l5.07-3.17,0-47.65Z" transform="translate(-375 -98)"/><path id="_Path_109" data-name=" Path 109" class="cls-31" d="M538,551.45l0,47.23,5.56,2.8V554Z" transform="translate(-375 -98)"/><path id="_Path_110" data-name=" Path 110" class="cls-31" d="M543.56,581.53s13.3-6.95,13.47-8,1.78-9.24,1.78-9.24l6.75-3.74-3,16.88-19,11Z" transform="translate(-375 -98)"/><path id="_Path_111" data-name=" Path 111" class="cls-31" d="M538,579.23l-2.89-3.16-1.21-5.74h-4.28l1.26,8.9,7.12,6.4Z" transform="translate(-375 -98)"/><path id="_Path_112" data-name=" Path 112" class="cls-30" d="M565.56,560.54l4.8-1.23s-1.43,14.83-2.47,15.2-5.41,2.94-5.41,2.94Z" transform="translate(-375 -98)"/><path id="_Path_113" data-name=" Path 113" class="cls-32" d="M533.92,570.33H538v8.9l-2.89-3.16Z" transform="translate(-375 -98)"/><path id="_Path_114" data-name=" Path 114" class="cls-14" d="M526.85,556.64v11.74l2.79,2h2.5L536,540.82l-9.12,3.38-6.45-9.44V555.4l3,6.75Z" transform="translate(-375 -98)"/><path id="_Path_115" data-name=" Path 115" class="cls-33" d="M511.7,532.09a33.64,33.64,0,0,0,1.06,11,43.2,43.2,0,0,0,4.62,11l3,1.24v-20.6Z" transform="translate(-375 -98)"/><path id="_Path_116" data-name=" Path 116" class="cls-29" d="M541.73,514.86l-21.33,19.9,6.45,9.44Z" transform="translate(-375 -98)"/><path id="_Path_117" data-name=" Path 117" class="cls-33" d="M538,541.88l9.22,2.32,2.15,9.59,1.41-6,2.67-4.08h4.1l3.56,20.55-19.4,10.21-3.7-4.18h-5.89L536,540.82Z" transform="translate(-375 -98)"/><path id="_Path_118" data-name=" Path 118" class="cls-3" d="M511.7,532.09s7.12-.72,7.12-1.23,1.6-4.8.71-5.52,2-1.23,2-1.23l4.54,5.41-5.63,5.27Z" transform="translate(-375 -98)"/><path id="_Path_119" data-name=" Path 119" class="cls-3" d="M573.05,530.51l-15.47,13.25,3.56,20.54s3.9-.74,4.17-2.25,6.13-19.08,6.3-19.62S573.05,530.51,573.05,530.51Z" transform="translate(-375 -98)"/><path id="_Path_120" data-name=" Path 120" class="cls-29" d="M536,540.82l37.08-10.31-15.47,13.25h-4.1l-2.67,4.08s-.89,6.75-1.44,6a81,81,0,0,1-2.12-9.6l-11.3-.44Z" transform="translate(-375 -98)"/><path id="_Path_121" data-name=" Path 121" class="cls-33" d="M565.56,560.54s7.42,1.24,8.35,3.74a19.61,19.61,0,0,1,1.07,4.08L589.19,536,573,530.48l-2,13.7Z" transform="translate(-375 -98)"/><path id="_Path_122" data-name=" Path 122" class="cls-3" d="M541.73,514.86l-5.76,26-9.12,3.39Z" transform="translate(-375 -98)"/><path id="_Path_123" data-name=" Path 123" class="cls-33" d="M549.39,505.79s0,6.4-.74,6.58-6.9,2.47-6.9,2.47L536,540.79l37.08-10.31L572,526.21l-6.68-1.06,3-6.95-2.92-8-4.18.54,1.44-2.67-7.15,3.37Z" transform="translate(-375 -98)"/><path id="_Path_124" data-name=" Path 124" class="cls-14" d="M575.35,517.33l5.68-.71-1.43,4.94s14.54,13.22,13.52,13.22-20.1-4.27-20.1-4.27L572,526.23l-6.67-1.06,2.94-6.95-2.89-8Z" transform="translate(-375 -98)"/><path id="_Path_125" data-name=" Path 125" class="cls-3" d="M593.17,538.32c.15-.17-20.12-7.83-20.12-7.83l20.07,4.3Z" transform="translate(-375 -98)"/><path id="_Path_126" data-name=" Path 126" class="cls-3" d="M575,568.38s6.43-6.06,8.11-5.17S586,562,586,562l-.92-8.09h2.67l5.37-15.57L589.22,536Z" transform="translate(-375 -98)"/><path id="_Path_127" data-name=" Path 127" class="cls-3" d="M536,520.25l-1.26-6.9,7-15.64L541,511.85l.72,2.94Z" transform="translate(-375 -98)"/><path id="_Path_128" data-name=" Path 128" class="cls-29" d="M549.39,505.79l-7.66-8L541,511.92l.69,2.94,7.66-2.32Z" transform="translate(-375 -98)"/><path id="_Path_129" data-name=" Path 129" class="cls-29" d="M551.3,507.59,559,500.1l2.6,6.2.87,1.29.1.49-7.12,3.39Z" transform="translate(-375 -98)"/><path id="_Path_130" data-name=" Path 130" class="cls-34" d="M467.35,252.1l-73.27-35.9V156.78l73.27,36.29Z" transform="translate(-375 -98)"/><path id="_Path_131" data-name=" Path 131" class="cls-31" d="M467.35,252.1l50.35-31v-59l-50.35,31Z" transform="translate(-375 -98)"/><path id="_Path_132" data-name=" Path 132" class="cls-35" d="M489.25,197.17v24l-13.3,8V205.53Z" transform="translate(-375 -98)"/><path id="_Path_133" data-name=" Path 133" class="cls-36" d="M489.25,221.17l-2.62-1.41V198.83l2.62-1.66Z" transform="translate(-375 -98)"/><path id="_Path_134" data-name=" Path 134" class="cls-37" d="M476,229.18l13.3-8-2.62-1.41L476,226Z" transform="translate(-375 -98)"/><path id="_Path_135" data-name=" Path 135" class="cls-35" d="M508.44,185.87v24l-13.3,8V194.2Z" transform="translate(-375 -98)"/><path id="_Path_136" data-name=" Path 136" class="cls-36" d="M508.43,209.88l-2.62-1.44V187.51l2.62-1.64Z" transform="translate(-375 -98)"/><path id="_Path_137" data-name=" Path 137" class="cls-37" d="M495.14,217.86l13.3-8-2.62-1.44-10.68,6.26Z" transform="translate(-375 -98)"/><path id="_Path_138" data-name=" Path 138" class="cls-38" d="M467.35,193.07l-73.27-36.29L445,128.1l72.67,34.73Z" transform="translate(-375 -98)"/><path id="_Path_139" data-name=" Path 139" class="cls-39" d="M394.08,156.78v-8l73.27,35.5v8.82Z" transform="translate(-375 -98)"/><path id="_Path_140" data-name=" Path 140" class="cls-23" d="M517.7,162.84l-50.35,30.23v-8.83l50.35-30.08Z" transform="translate(-375 -98)"/><path id="_Compound_Path_3" data-name=" Compound Path 3" class="cls-40" d="M446.44,119.35l-52.36,29.39,73.27,35.5,50.38-30.13Zm20.91,60.19L402.19,148.3Z" transform="translate(-375 -98)"/><path id="_Path_141" data-name=" Path 141" class="cls-23" d="M449,129.81l-38.39,22.5-8.35-4L449,121.13Z" transform="translate(-375 -98)"/><path id="_Path_142" data-name=" Path 142" class="cls-11" d="M437,220.28V195.54l-14.83-7.17v24.84Z" transform="translate(-375 -98)"/><path id="_Path_143" data-name=" Path 143" class="cls-37" d="M422.19,213.21l2.3-1.68L437,217.37v2.91Z" transform="translate(-375 -98)"/><path id="_Path_144" data-name=" Path 144" class="cls-36" d="M422.19,188.37v24.84l2.3-1.68V189.71Z" transform="translate(-375 -98)"/><path id="_Path_145" data-name=" Path 145" class="cls-11" d="M458.06,230.54V205.8l-14.83-7.17v24.84Z" transform="translate(-375 -98)"/><path id="_Path_146" data-name=" Path 146" class="cls-37" d="M443.23,223.47l2.29-1.68,12.54,5.84v2.91Z" transform="translate(-375 -98)"/><path id="_Path_147" data-name=" Path 147" class="cls-36" d="M443.23,198.63v24.84l2.29-1.68V200Z" transform="translate(-375 -98)"/><path id="_Path_148" data-name=" Path 148" class="cls-11" d="M416.58,211V186.32l-14.83-7.19V204Z" transform="translate(-375 -98)"/><path id="_Path_149" data-name=" Path 149" class="cls-37" d="M401.75,204l2.3-1.68,12.53,5.85V211Z" transform="translate(-375 -98)"/><path id="_Path_150" data-name=" Path 150" class="cls-36" d="M401.75,179.13V204l2.3-1.68V180.46Z" transform="translate(-375 -98)"/><path id="_Path_151" data-name=" Path 151" class="cls-17" d="M446.44,119.35l71.26,34.8-4,2.4L443.1,121.23Z" transform="translate(-375 -98)"/><path id="_Path_152" data-name=" Path 152" class="cls-39" d="M446.14,122.77l63.65,31.83L502,159l-55.87-28.3Z" transform="translate(-375 -98)"/><path id="_Path_153" data-name=" Path 153" class="cls-41" d="M446.14,122.77v7.91l6,3v-7.86Z" transform="translate(-375 -98)"/><path id="_Path_154" data-name=" Path 154" class="cls-40" d="M501.78,159l-34.43,20.57-57-27.24,35.57-21.63Z" transform="translate(-375 -98)"/><path id="_Path_155" data-name=" Path 155" class="cls-10" d="M410.57,152.31h11.17l30.4-18.59-6-3Z" transform="translate(-375 -98)"/><path id="_Path_156" data-name=" Path 156" class="cls-42" d="M456.08,174.13l9.52-5.76v-3.14l-11,6.75v1.44Z" transform="translate(-375 -98)"/><path id="_Path_157" data-name=" Path 157" class="cls-43" d="M454.57,173.42l-11.94-5.74v-1.46L454.57,172Z" transform="translate(-375 -98)"/><path id="_Path_158" data-name=" Path 158" class="cls-8" d="M454.57,172l-11.94-5.76,11.2-6.75,11.77,5.76Z" transform="translate(-375 -98)"/><path id="_Path_159" data-name=" Path 159" class="cls-44" d="M445,166l9.54,4.45,8.6-5.24-9.34-4.35Z" transform="translate(-375 -98)"/><path id="_Path_160" data-name=" Path 160" class="cls-45" d="M456.08,174.13l1.88.92h1.65l11.72-7.1-5.73-2.72v3.14Z" transform="translate(-375 -98)"/><path id="_Path_161" data-name=" Path 161" class="cls-6" d="M457.36,157.92l13.58-8.21v-8.9l-13.58,8.31Z" transform="translate(-375 -98)"/><path id="_Path_162" data-name=" Path 162" class="cls-43" d="M457.37,157.92l-14.74-7.07v-8.8l14.74,7.07Z" transform="translate(-375 -98)"/><path id="_Path_163" data-name=" Path 163" class="cls-8" d="M457.37,149.12l-14.74-7.07,13.8-8.33,14.51,7.09Z" transform="translate(-375 -98)"/><path id="_Path_164" data-name=" Path 164" class="cls-44" d="M445.6,141.77l11.76,5.49,10.58-6.45-11.52-5.36Z" transform="translate(-375 -98)"/><path id="_Path_165" data-name=" Path 165" class="cls-10" d="M457.36,157.92h11.28l15.05-8.23-12.75-6.46v6.48Z" transform="translate(-375 -98)"/><path id="_Path_166" data-name=" Path 166" class="cls-16" d="M547.81,485.35a6.36,6.36,0,0,1-3.61,5.31,13.31,13.31,0,0,1-6.62,1.66,13.54,13.54,0,0,1-6.16-1.41,6.56,6.56,0,0,1-4-5.56,6.17,6.17,0,0,1,3.16-5,13.16,13.16,0,0,1,7.07-1.93,13.54,13.54,0,0,1,6.16,1.41A6.59,6.59,0,0,1,547.81,485.35Z" transform="translate(-375 -98)"/><path id="_Path_167" data-name=" Path 167" class="cls-16" d="M502.77,512.74a6.35,6.35,0,0,1-3.6,5.31,13.38,13.38,0,0,1-6.63,1.66,13.53,13.53,0,0,1-6.15-1.41,6.61,6.61,0,0,1-4.06-5.56,6.2,6.2,0,0,1,3.17-4.95,13.12,13.12,0,0,1,7.07-1.93,13.53,13.53,0,0,1,6.15,1.41,6.58,6.58,0,0,1,4,5.47Z" transform="translate(-375 -98)"/><g id="_Group_2" data-name=" Group 2"><path id="_Path_168" data-name=" Path 168" class="cls-16" d="M652.94,422.24a6.38,6.38,0,0,1-3.61,5.31,13.34,13.34,0,0,1-6.62,1.66,13.54,13.54,0,0,1-6.16-1.41,6.59,6.59,0,0,1-4-5.56,6.15,6.15,0,0,1,3.16-4.94,13,13,0,0,1,7.07-1.93,13.6,13.6,0,0,1,6.16,1.41,6.61,6.61,0,0,1,4.05,5.46Z" transform="translate(-375 -98)"/></g><g id="_Group_3" data-name=" Group 3"><path id="_Path_169" data-name=" Path 169" class="cls-16" d="M670.22,467.92a6.36,6.36,0,0,1-3.53,5.31,13.35,13.35,0,0,1-6.63,1.66,13.53,13.53,0,0,1-6.15-1.41,6.59,6.59,0,0,1-4.06-5.56A6.2,6.2,0,0,1,653,463a13,13,0,0,1,7.07-1.92,13.53,13.53,0,0,1,6.15,1.41,6.59,6.59,0,0,1,4,5.46Z" transform="translate(-375 -98)"/></g><g id="_Group_4" data-name=" Group 4"><path id="_Path_170" data-name=" Path 170" class="cls-16" d="M594.53,713.68a6.38,6.38,0,0,1-3.61,5.31,13.31,13.31,0,0,1-6.62,1.66,13.54,13.54,0,0,1-6.16-1.41,6.56,6.56,0,0,1-4-5.56,6.17,6.17,0,0,1,3.16-4.95,13.07,13.07,0,0,1,7.07-1.92,13.56,13.56,0,0,1,6.16,1.4A6.62,6.62,0,0,1,594.53,713.68Z" transform="translate(-375 -98)"/></g><g id="_Group_5" data-name=" Group 5"><path id="_Path_171" data-name=" Path 171" class="cls-16" d="M690.37,311.05a6.41,6.41,0,0,1-3.61,5.32,13.24,13.24,0,0,1-6.63,1.65,13.53,13.53,0,0,1-6.15-1.41,6.56,6.56,0,0,1-4.05-5.56,6.17,6.17,0,0,1,3.16-4.94,13,13,0,0,1,7.07-1.93,13.53,13.53,0,0,1,6.15,1.41,6.61,6.61,0,0,1,4.06,5.46Z" transform="translate(-375 -98)"/></g><g id="_Group_6" data-name=" Group 6"><path id="_Path_172" data-name=" Path 172" class="cls-16" d="M645.33,337.77a6.38,6.38,0,0,1-3.61,5.32,13.24,13.24,0,0,1-6.63,1.65,13.4,13.4,0,0,1-6.15-1.41,6.56,6.56,0,0,1-4.05-5.56,6.17,6.17,0,0,1,3.16-4.94,13.05,13.05,0,0,1,7.07-1.93,13.53,13.53,0,0,1,6.15,1.41A6.61,6.61,0,0,1,645.33,337.77Z" transform="translate(-375 -98)"/></g><g id="_Group_7" data-name=" Group 7"><path id="Union_5" data-name="Union 5" class="cls-16" d="M484.41,848.89,468.49,841,441.64,828.2l-5.41-2.47c-5.86-3-9.29-7.89-9.29-13.05a14.5,14.5,0,0,1,7.26-11.87l12.36-7.42L505,758.29h.15l22.25-13.4,54.11-32.38h-.15l61.28-36.83h.22l51.39-30.92h-.15l58.46-35.15,2.65-1.49.27-.17,8.48-4.8a9.87,9.87,0,0,0,5.68-8.08c0-3.29-2.37-6.4-6.5-8.53l-13.57-6.75L688.64,550h-.18l-61.6-30.19-7.78-3.68c-5.86-3-9.3-7.89-9.3-13.05a14.49,14.49,0,0,1,7.27-11.87l12.36-7.41L677.22,455h-.15l57.13-34.29.69-.4,3.48-2.1,7.07-4a9.87,9.87,0,0,0,5.69-8.08c0-3.29-2.37-6.4-6.5-8.53l-2.33-1.16-16.28-8A23.7,23.7,0,0,0,715.24,386a22.61,22.61,0,0,0-12.36,3.34l-15.2,9.2-53.77,32.3-57.62,34.61-38.93,23.41h.17l-61.28,36.83-16.58,10.13a29.63,29.63,0,0,1-27.19.57l-15.9-7.86-26.87-12.83-5.41-2.47c-5.86-3-9.3-7.88-9.3-13.05a14.52,14.52,0,0,1,7.42-11.92l12.36-7.41,58.31-35,5.29,2.72L399.9,483.66l-15,8.92a9.4,9.4,0,0,0-4.94,7.59c0,3.21,2.47,6.33,6.8,8.45l13.05,6.18h-.15l18.49,8.83,6.16,3,1.68.81,8.87,4.4a23.57,23.57,0,0,0,10.8,2.48,23.29,23.29,0,0,0,11.55-2.87l16.26-9.89,55.35-33.3h-.17l61.28-36.83L632.38,426,683,395.51l17.3-10.41a27.77,27.77,0,0,1,15-4.1,28.64,28.64,0,0,1,13.05,3l6,3L747,393.21l.47.23c5.49,3,8.75,7.78,8.75,12.73A14.83,14.83,0,0,1,748,418.53l-8.28,4.67-50.15,30.13h.15l-61.28,36.83-8.75,5.22a9.39,9.39,0,0,0-4.95,7.59c0,3.28,2.35,6.4,6.48,8.52l13,6.18,56.86,27.91h.17l61.4,30.08,12.58,6.26c5.83,3,9.29,7.86,9.34,13.1a14.82,14.82,0,0,1-8.2,12.36l-8.28,4.67-51.49,31h.14L645.5,679.83h-.22l-51.44,30.92H594l-61.28,36.83-41.53,25H491l-39.23,23.58-15,8.93a9.38,9.38,0,0,0-4.94,7.58c0,3.29,2.47,6.4,6.6,8.53l13.05,6.18h-.15l18.49,8.83,6.16,3,1.68.81,8.87,4.4a23.69,23.69,0,0,0,10.8,2.48A23.42,23.42,0,0,0,508.91,844l12.78-7.82,1.68-1,1.8-1.11,54.26-32.78h-.18l61.28-36.83,9.89-5.88,61.28-36.83,5.31,2.66-28.6,17.3-61.28,36.84-39,23.38h.17l-58,34.85-18.79,11.5a29.69,29.69,0,0,1-27.18.58Zm10-429.67,61.28-36.83h.15l42-25.26,34.39-20.67h-.15l61.28-36.73h.22l43.33-26.1h-.15l58.47-35,2.64-1.48.27-.15,8.48-4.8a9.89,9.89,0,0,0,5.69-8.08c0-3.29-2.38-6.4-6.5-8.53l-13.58-6.75-53.79-26.35h-.2l-16.29-8A23.66,23.66,0,0,0,711.18,172a22.61,22.61,0,0,0-12.36,3.34l-15.33,9.15-59,35.5-5.32-2.67,61.4-36.81L696.19,171a27.77,27.77,0,0,1,15-4.1,28.63,28.63,0,0,1,12.93,2.89l9.69,4.78H734l61.43,30.15L808,211c5.84,2.91,9.27,7.78,9.23,13A14.84,14.84,0,0,1,809,236.33L800.71,241l-43.39,26.07h.15l-61.28,36.84H696l-51.41,30.9h.14l-61.27,36.83-41.56,25h-.15l-42,25.26Z" transform="translate(-375 -98)"/></g><g id="_Group_8" data-name=" Group 8"><path id="_Path_173" data-name=" Path 173" class="cls-16" d="M735.41,283.56a6.38,6.38,0,0,1-3.61,5.32,13.24,13.24,0,0,1-6.63,1.65,13.52,13.52,0,0,1-6.15-1.4,6.61,6.61,0,0,1-4.06-5.57,6.2,6.2,0,0,1,3.17-4.94,13.12,13.12,0,0,1,7.07-1.93,13.53,13.53,0,0,1,6.15,1.41A6.61,6.61,0,0,1,735.41,283.56Z" transform="translate(-375 -98)"/></g><g id="_Group_9" data-name=" Group 9"><path id="_Path_174" data-name=" Path 174" class="cls-16" d="M486.43,778a6.34,6.34,0,0,1-3.61,5.32A13.2,13.2,0,0,1,476.2,785a13.59,13.59,0,0,1-6.16-1.4A6.6,6.6,0,0,1,466,778a6.21,6.21,0,0,1,3.16-4.94,13.08,13.08,0,0,1,7.07-1.93,13.54,13.54,0,0,1,6.16,1.41A6.58,6.58,0,0,1,486.43,778Z" transform="translate(-375 -98)"/></g><g id="_Group_10" data-name=" Group 10"><path id="_Path_175" data-name=" Path 175" class="cls-16" d="M715.26,440.43a6.4,6.4,0,0,1-3.58,5.37,13.24,13.24,0,0,1-6.63,1.65A13.53,13.53,0,0,1,698.9,446a6.57,6.57,0,0,1-4.06-5.56,6.2,6.2,0,0,1,3.17-4.94,12.94,12.94,0,0,1,7.07-1.93,13.53,13.53,0,0,1,6.15,1.41,6.61,6.61,0,0,1,4,5.41Z" transform="translate(-375 -98)"/></g><g id="_Group_11" data-name=" Group 11"><path id="_Path_176" data-name=" Path 176" class="cls-16" d="M639.5,687a6.38,6.38,0,0,1-3.61,5.31,13.35,13.35,0,0,1-6.63,1.66,13.53,13.53,0,0,1-6.15-1.41,6.61,6.61,0,0,1-4.06-5.56,6.2,6.2,0,0,1,3.17-5,13.12,13.12,0,0,1,7.07-1.93,13.66,13.66,0,0,1,6.15,1.41A6.62,6.62,0,0,1,639.5,687Z" transform="translate(-375 -98)"/></g><g id="_Group_12" data-name=" Group 12"><path id="_Path_177" data-name=" Path 177" class="cls-16" d="M643.52,770.93a6.36,6.36,0,0,1-3.61,5.31,13.31,13.31,0,0,1-6.62,1.66,13.54,13.54,0,0,1-6.16-1.41,6.62,6.62,0,0,1-4-5.56,6.17,6.17,0,0,1,3.16-4.95,13.16,13.16,0,0,1,7.07-1.93,13.67,13.67,0,0,1,6.16,1.41A6.59,6.59,0,0,1,643.52,770.93Z" transform="translate(-375 -98)"/></g><g id="_Group_13" data-name=" Group 13"><path id="_Path_178" data-name=" Path 178" class="cls-16" d="M780.4,256.1a6.41,6.41,0,0,1-3.61,5.32,13.24,13.24,0,0,1-6.63,1.65,13.53,13.53,0,0,1-6.15-1.41A6.57,6.57,0,0,1,760,256.1a6.2,6.2,0,0,1,3.17-4.94,12.94,12.94,0,0,1,7.07-1.93,13.53,13.53,0,0,1,6.15,1.41,6.61,6.61,0,0,1,4.06,5.46Z" transform="translate(-375 -98)"/></g><g id="_Group_14" data-name=" Group 14"><path id="_Path_179" data-name=" Path 179" class="cls-46" d="M656.16,209.41h0l-1.51-6.26h-3.58a32.78,32.78,0,0,0-31.92,0h-3.46L614,209.33h0a8.32,8.32,0,0,0-.3,2c0,6.8,9.55,12.36,21.34,12.36s21.33-5.51,21.33-12.36A7.61,7.61,0,0,0,656.16,209.41Z" transform="translate(-375 -98)"/><ellipse id="_Path_180" data-name=" Path 180" class="cls-47" cx="260.16" cy="106.59" rx="19.63" ry="11.32"/><ellipse id="_Path_181" data-name=" Path 181" class="cls-46" cx="260.09" cy="105.92" rx="9.99" ry="5.32"/></g><g id="_Group_15" data-name=" Group 15"><path id="_Path_182" data-name=" Path 182" class="cls-16" d="M610.28,451.78h0l-1.51-6.26h-3.58a32.78,32.78,0,0,0-31.92,0h-3.46l-1.65,6.18h0a7.42,7.42,0,0,0-.3,2c0,6.8,9.54,12.36,21.33,12.36s21.33-5.51,21.33-12.36A7.61,7.61,0,0,0,610.28,451.78Z" transform="translate(-375 -98)"/><ellipse id="_Path_183" data-name=" Path 183" class="cls-48" cx="214.29" cy="348.96" rx="19.63" ry="11.32"/><ellipse id="_Path_184" data-name=" Path 184" class="cls-16" cx="214.21" cy="348.29" rx="9.99" ry="5.32"/></g><g id="_Group_16" data-name=" Group 16"><path id="_Path_185" data-name=" Path 185" class="cls-49" d="M552.66,742.65h0l-1.51-6.25h-3.58a32.73,32.73,0,0,0-31.92,0h-3.46l-1.65,6.18h0a6.92,6.92,0,0,0-.3,2c0,6.8,9.54,12.36,21.33,12.36s21.33-5.51,21.33-12.36A7.61,7.61,0,0,0,552.66,742.65Z" transform="translate(-375 -98)"/><ellipse id="_Path_186" data-name=" Path 186" class="cls-50" cx="156.67" cy="639.83" rx="19.63" ry="11.32"/><ellipse id="_Path_187" data-name=" Path 187" class="cls-49" cx="156.62" cy="639.16" rx="9.99" ry="5.32"/></g><g id="_Group_17" data-name=" Group 17"><path id="_Path_188" data-name=" Path 188" class="cls-10" d="M727.69,725h0l-1.5-6.25H722.6a32.71,32.71,0,0,0-31.91,0h-3.46l-1.66,6.18h0a7.29,7.29,0,0,0-.3,2c0,6.8,9.54,12.36,21.34,12.36s21.33-5.51,21.33-12.36A7.18,7.18,0,0,0,727.69,725Z" transform="translate(-375 -98)"/><ellipse id="_Path_189" data-name=" Path 189" class="cls-51" cx="331.7" cy="622.16" rx="19.63" ry="11.32"/><ellipse id="_Path_190" data-name=" Path 190" class="cls-10" cx="331.63" cy="621.49" rx="9.99" ry="5.32"/></g><g id="_Group_18" data-name=" Group 18"><path id="_Path_191" data-name=" Path 191" class="cls-16" d="M598.46,797.7a6.36,6.36,0,0,1-3.61,5.31,13.31,13.31,0,0,1-6.62,1.66,13.54,13.54,0,0,1-6.16-1.41A6.56,6.56,0,0,1,578,797.7a6.17,6.17,0,0,1,3.16-5,13.07,13.07,0,0,1,7.07-1.92,13.53,13.53,0,0,1,6.16,1.4A6.6,6.6,0,0,1,598.46,797.7Z" transform="translate(-375 -98)"/></g><path id="_Path_192" data-name=" Path 192" class="cls-11" d="M414.92,462.23l17.3,8.38s7.42,3.74,11.77,2.7a66.92,66.92,0,0,0,11.86-4.95l52.28-32.45s4.23-3.19,2.13-4.72-13.79-11.72-13.79-11.72l-83,27.19-3.83,8.75a3.75,3.75,0,0,0,.57,3.44,20.27,20.27,0,0,0,4.74,3.38Z" transform="translate(-375 -98)"/><path id="_Path_193" data-name=" Path 193" class="cls-12" d="M449.45,455.19s5.62-1.66,7.91,0,1.14,2.17,2.48,3.06a8.94,8.94,0,0,0,4.52.52s5.32-4.94,5.44-5.39-.52-6-.52-6l-12.36-3.31-8.08,4.6Z" transform="translate(-375 -98)"/><path id="_Path_194" data-name=" Path 194" class="cls-12" d="M491,427.6s3.83-1,5.61.65,1.28,3.31,2.82,4.22a8.14,8.14,0,0,0,3.36,1A14.81,14.81,0,0,0,506,430.4c.13-.37-.12-5.86-.12-5.86l-4.08-3.88-5.36.94Z" transform="translate(-375 -98)"/><path id="_Path_195" data-name=" Path 195" class="cls-52" d="M456.35,461.32c-.79,2.3-.72,6.28-2.47,6.92-.92.37-3.49-1.9-4.35-2.35-2.67-1.33-3.27-5.86-1.41-9.64,1.68-3.36,4.67-4.6,6.7-3.11,1.06.79,3.61,1.9,3.81,3.53S456.85,459.86,456.35,461.32Z" transform="translate(-375 -98)"/><path id="_Path_196" data-name=" Path 196" class="cls-52" d="M498,434.85c-.76,2.22-.69,6.06-2.27,6.7-.89.35-3.36-1.83-4.2-2.25-2.47-1.28-3.17-5.66-1.36-9.29,1.63-3.27,4.5-4.43,6.45-3,1,.74,3.48,1.82,3.66,3.41S498.6,433.44,498,434.85Z" transform="translate(-375 -98)"/><path id="_Path_197" data-name=" Path 197" class="cls-14" d="M411.12,454.42c.57,0,20.12,9.89,20.12,9.89a8,8,0,0,0,1.14,2.47c.74,1,5.83,2.18,8.45,2.48s6.95-.2,7.71-1.78,1.51-9.13,2.82-11.33,7.14-5.56,8.45-5.16,3,1,2.82,2.47a26.44,26.44,0,0,0,0,4s.17,1.78,1.68,1.38,26.53-17.47,26.53-17.47.74-.4,1.13-2.47.37-9.72,2.48-11.13,5.63-3.36,5.63-3.36a2.48,2.48,0,0,1,2.08,1.58,42.44,42.44,0,0,1,0,6.95,1,1,0,0,0,1.28.56l.1,0a14.25,14.25,0,0,0,4.53-3.78,16.29,16.29,0,0,0,2.07-7.74c-.37-2.77.2-6.55-1.51-8.33s-25.75-12.71-25.75-12.71a8.33,8.33,0,0,0-5.27,0c-2.64,1-14.83,4.16-15.32,4.35a48.18,48.18,0,0,1-6.93-2.22,7.86,7.86,0,0,0-3.53.42,172.89,172.89,0,0,0-17.11,8.3l-7.59,4.95a18.6,18.6,0,0,0-2.18,2.74,52.38,52.38,0,0,1-7.41,10.33c-1.88,1.39-9.4,5.15-9.4,5.15a19.08,19.08,0,0,0-3.36,6.42c-.37,2.48,2.47,9.1,2.47,9.1a2.07,2.07,0,0,0,.84,2.3c1.31,1.19.8,3.09,1.36,2.9A7.3,7.3,0,0,0,411.12,454.42Z" transform="translate(-375 -98)"/><path id="_Path_198" data-name=" Path 198" class="cls-16" d="M510.19,421.87c-.35-2.65.12-6.18-1.29-8.06a5.08,5.08,0,0,1-1.23,1.26l-14,4.94-14.83-5.85-24.16,14-3.9,17.3s-6.53,5.27-9.91,5.27h-4.68s-22.4-10.58-24.71-12.36a8.83,8.83,0,0,1-3.14-3.88,7.87,7.87,0,0,0-3.42,4.25,28,28,0,0,0,0,8.95,13,13,0,0,0,2,5.49c1.31,1.18,2.3,2.2,2.84,2a7.56,7.56,0,0,0,1.51-1c.57,0,20.12,9.88,20.12,9.88a8.1,8.1,0,0,0,1.14,2.48c.74,1,5.83,2.17,8.45,2.47s7-.2,7.71-1.78,1.51-9.12,2.82-11.32,7.14-5.56,8.46-5.17,3,1,2.81,2.47a26.44,26.44,0,0,0,0,4s.18,1.78,1.68,1.39,26.53-17.48,26.53-17.48.74-.4,1.14-2.47.37-9.72,2.47-11.12,5.63-3.37,5.63-3.37a2.48,2.48,0,0,1,2.08,1.59,42.44,42.44,0,0,1,0,6.95,1,1,0,0,0,1.16.78l.15,0a14.1,14.1,0,0,0,4.52-3.78A16.18,16.18,0,0,0,510.19,421.87Z" transform="translate(-375 -98)"/><path id="_Path_199" data-name=" Path 199" class="cls-18" d="M419.49,429.65s3.44-5.06,5.15-7.61,3.11-4.6,3.11-4.6l25.68,12.14L450,443.64s-.52.89-1.16.89-29.37-14-29.37-14Z" transform="translate(-375 -98)"/><path id="_Path_200" data-name=" Path 200" class="cls-18" d="M456.18,428.91c.24.37,2.74,13,2.74,13l-6.85,4.13a165,165,0,0,1,3.44-16.59C456.18,428.49,456.18,428.91,456.18,428.91Z" transform="translate(-375 -98)"/><path id="_Path_201" data-name=" Path 201" class="cls-18" d="M458.35,428l3.09,12.34,12.83-7.84-4.5-11.32Z" transform="translate(-375 -98)"/><path id="_Path_202" data-name=" Path 202" class="cls-18" d="M471.68,420.21l4.52,11.08,12.11-7.42,2.85-1.68a1,1,0,0,0,.58-1.35,1.06,1.06,0,0,0-.58-.58c-1.51-1-12-4.77-12-4.77Z" transform="translate(-375 -98)"/><path id="_Path_203" data-name=" Path 203" class="cls-15" d="M428.49,415.61l-.32.57.32.4L452.69,428s2,.84,2.94.27,3.19-1.95,3.19-1.95l9.67-5.74,4.08-2.47,6.6-4-22.6-11.44a5,5,0,0,0-5.93,0L432.4,413Z" transform="translate(-375 -98)"/><path id="_Path_204" data-name=" Path 204" class="cls-15" d="M467.13,403.77l30.48,14.83,10.08-3.48,1.24-1.26a77.88,77.88,0,0,0-12.8-6.92L483,400.81a5.14,5.14,0,0,0-3-.52,28.16,28.16,0,0,0-3.75.71Z" transform="translate(-375 -98)"/><path id="_Path_205" data-name=" Path 205" class="cls-10" d="M427.68,417.37s-1.41,2.05-3.12,4.6l-5.07,7.61v.94l9.15,4.42.12-.12a23.51,23.51,0,0,0,11.8-3.56,10.85,10.85,0,0,0,4.6-5.64h0Z" transform="translate(-375 -98)"/><path id="_Path_206" data-name=" Path 206" class="cls-18" d="M460.13,463.94c-1.18,3.61-4.13,5.88-6.57,4.65s-3.29-5.86-1.49-9.67c1.64-3.38,4.55-4.62,6.58-3.16a7.41,7.41,0,0,1,1.48,8.18Z" transform="translate(-375 -98)"/><path id="_Path_207" data-name=" Path 207" class="cls-21" d="M458.53,463.35c-.75,2.22-2.48,3.61-4.06,2.84s-2-3.61-.91-5.93,2.79-2.85,4-1.93a4.63,4.63,0,0,1,.94,5Z" transform="translate(-375 -98)"/><path id="_Path_208" data-name=" Path 208" class="cls-18" d="M501.66,437.12c-1.16,3.48-4,5.66-6.35,4.47s-3.17-5.66-1.41-9.32c1.58-3.26,4.4-4.47,6.35-3A7.27,7.27,0,0,1,501.66,437.12Z" transform="translate(-375 -98)"/><path id="_Path_209" data-name=" Path 209" class="cls-21" d="M500.11,436.55c-.72,2.13-2.48,3.49-3.91,2.74s-1.95-3.46-.87-5.71,2.7-2.74,3.91-1.87A4.48,4.48,0,0,1,500.11,436.55Z" transform="translate(-375 -98)"/><path id="_Path_210" data-name=" Path 210" class="cls-12" d="M487.37,422.59a2.78,2.78,0,0,0,3,1.78c2.47-.18,2.47-.89,2.47-.89A3.1,3.1,0,0,0,491.1,421a25.5,25.5,0,0,0-3.83-1.33l-.49.76,1.14.52Z" transform="translate(-375 -98)"/><g id="_Group_19" data-name=" Group 19"><path id="_Path_211" data-name=" Path 211" class="cls-17" d="M493.65,428.74,459.39,451a1.14,1.14,0,0,1,.52,0c1.31.4,3,1,2.82,2.47a24,24,0,0,0,0,4s.17,1.78,1.68,1.38,26.52-17.47,26.52-17.47.74-.4,1.14-2.48.37-7.41,1.61-9.88Z" transform="translate(-375 -98)"/></g><g id="_Group_20" data-name=" Group 20"><path id="_Path_212" data-name=" Path 212" class="cls-17" d="M502.11,425.82a42.44,42.44,0,0,1,0,6.95,1,1,0,0,0,1.17.76,1.14,1.14,0,0,0,.26-.09,14.13,14.13,0,0,0,4.52-3.79,16.23,16.23,0,0,0,2.08-7.73c-.27-2,0-4.48-.54-6.38l-2.2,4.25-7.1,4.6a2.28,2.28,0,0,1,1.8,1.44Z" transform="translate(-375 -98)"/></g><g id="_Group_21" data-name=" Group 21"><path id="_Path_213" data-name=" Path 213" class="cls-17" d="M438.45,457.22a9.64,9.64,0,0,1,1.24-5v-.52l-3.41-1-3,5.41,2.47,12.07a31.19,31.19,0,0,0,5.17,1c2.62.2,6.94-.2,7.71-1.78s1.51-9.12,2.82-11.32a87.13,87.13,0,0,1-10.19,4.23C439.64,460.63,438.85,459.14,438.45,457.22Z" transform="translate(-375 -98)"/></g><path id="_Path_214" data-name=" Path 214" class="cls-16" d="M436.8,463.55a13.59,13.59,0,0,1,.64-8.38,10.55,10.55,0,0,1,3.71-3.71c-1.26-.3-4.95-.65-4.95-.65s-22.4-10.58-24.71-12.36a8.77,8.77,0,0,1-3.14-3.88,7.86,7.86,0,0,0-3.41,4.26,27.37,27.37,0,0,0,0,8.94,13,13,0,0,0,1.95,5.49c1.31,1.19,2.3,2.2,2.84,2a7.15,7.15,0,0,0,1.51-1c.57,0,18.54,9.07,18.54,9.07a9.46,9.46,0,0,0,1.14,2.48c1.11,1.58,7.41,3,10.06,3.23C437.81,468,437.44,465.91,436.8,463.55Z" transform="translate(-375 -98)"/><path id="_Path_215" data-name=" Path 215" class="cls-15" d="M407.13,435.46s-1.7,1.68,0,2.48c3.93,2.12,25.66,12.48,25.66,12.48a8.56,8.56,0,0,0,8.31.89,31.41,31.41,0,0,0,3.95-2.05l1.07-.62c.52-.3.3-.62.3-.62l-.37-.57-.75-.34-32.13-15.28-4.95,2.72Z" transform="translate(-375 -98)"/><g id="_Group_22" data-name=" Group 22"><path id="_Compound_Path_4" data-name=" Compound Path 4" class="cls-11" d="M477.24,448l-.89-14-6.23-14.49h0l8.7-5.17h0l14.83,6.18.87,3.32s0,.2-1.59,1.78a6.68,6.68,0,0,0-1.82,4.35L490,439.57h0Zm-6.85-28.35L476.55,434l.91,13.54,12.36-8.05,1-9.45a6.84,6.84,0,0,1,1.93-4.52,13.79,13.79,0,0,0,1.48-1.48l-.84-3.22-14.83-6.11Z" transform="translate(-375 -98)"/></g><g id="_Group_23" data-name=" Group 23"><path id="_Compound_Path_5" data-name=" Compound Path 5" class="cls-11" d="M464.78,455.83v-.15a65.22,65.22,0,0,0-1.71-10.57c-.79-1.49-1.7-1.14-1.75-1.12h-.15v-.14l-4.3-16.42h0l13.37-8L476.52,434l.94,13.84h0Zm-3.26-12.23c.42,0,1.11.2,1.7,1.31A58.6,58.6,0,0,1,465,455.36l12.21-7.69L476.35,434l-6.13-14.24-13,7.78,4.23,16.1Z" transform="translate(-375 -98)"/></g><path id="_Path_216" data-name=" Path 216" class="cls-53" d="M481.29,434.82a2.65,2.65,0,0,1-2.3.77,1.58,1.58,0,0,1-1.13-1.54,2.33,2.33,0,0,1,1.31-1.45,1.79,1.79,0,0,1,1.5-.15,1.43,1.43,0,0,1,1.07,1.53,1.51,1.51,0,0,1-.45.84Z" transform="translate(-375 -98)"/><path id="_Path_217" data-name=" Path 217" class="cls-20" d="M478.82,435.37a25.43,25.43,0,0,0,2.47-1.46s.67-.72.35-1.14-2.75,1.31-2.75,1.31-1.63.52-.84,1S478.82,435.37,478.82,435.37Z" transform="translate(-375 -98)"/><path id="_Path_218" data-name=" Path 218" class="cls-14" d="M488.71,420.66l-.77,2a3.1,3.1,0,0,0,3.31,1.09c1.26-.22.84-.44.84-.44s.45,0-.34-1.11a3.08,3.08,0,0,0-.87-.7A6.09,6.09,0,0,0,488.71,420.66Z" transform="translate(-375 -98)"/><path id="_Path_219" data-name=" Path 219" class="cls-54" d="M506.6,419.77v1.53s.13.94,1.22.54c.59-.22,1.53-.66,1.53-.66l.74-.52v-2.1h-1.95Z" transform="translate(-375 -98)"/><path id="_Path_220" data-name=" Path 220" class="cls-55" d="M509.4,414.65l-.74,1.38a2.79,2.79,0,0,1-1.09.87,3.09,3.09,0,0,0-1,.54v2.35s0,1.71.87,1.39a6.09,6.09,0,0,0,1.93-1,3.16,3.16,0,0,0,.64-.77,23.25,23.25,0,0,0-.17-3.44C509.67,415.49,509.4,414.65,509.4,414.65Z" transform="translate(-375 -98)"/><path id="_Path_221" data-name=" Path 221" class="cls-29" d="M413,442.71l16.36,8.58,4.18,6.72,6,1.46,1.82-1.49s-.3,2.48-1.13,3.09a5.2,5.2,0,0,1-4.6,1.14c-6.23-2.17-30.95-15.13-30.95-15.13a20.26,20.26,0,0,1-.25-3c0-1.27,4-2,4-2Z" transform="translate(-375 -98)"/><path id="_Path_222" data-name=" Path 222" class="cls-21" d="M404.66,445.6a41.74,41.74,0,0,0,6.11,3.19c.81,0,.72-.2,1.21-1.29a31,31,0,0,0,1.06-4.77,20.72,20.72,0,0,0-2.25-1.28l-4.1-2s-1.06-.42-1.06-1.11a3.73,3.73,0,0,1,.17-1.19,7.79,7.79,0,0,0-.86,2c-.21,1.22-.36,2.45-.45,3.68a14.28,14.28,0,0,0,.18,2.77Z" transform="translate(-375 -98)"/><path id="_Path_223" data-name=" Path 223" class="cls-21" d="M441.87,452.84a5.54,5.54,0,0,1-2,1.56,4.57,4.57,0,0,1-2.13.3s-3.19-1.09-4.94-1.86-3.37-1.55-3.37-1.55-.86,2.81-1,3.68-.69,2.3.77,3,6.2,2.89,6.2,2.89a11.78,11.78,0,0,0,3.16-.77,7.83,7.83,0,0,1,2.08-.84s.57-.2,1-2.22A19.78,19.78,0,0,0,441.87,452.84Z" transform="translate(-375 -98)"/><path id="_Path_224" data-name=" Path 224" class="cls-3" d="M433,467.25a5.24,5.24,0,0,1-1.86-2.47,15.44,15.44,0,0,1-.27-4.6l-20-9.89a15.56,15.56,0,0,1-1.45,4,2,2,0,0,1-1.46,0h0c.89.82,1.55,1.36,2,1.22a7.22,7.22,0,0,0,1.5-1c.57,0,18.54,9.07,18.54,9.07A9.39,9.39,0,0,0,431,466a5.5,5.5,0,0,0,2.35,1.43A1.68,1.68,0,0,0,433,467.25Z" transform="translate(-375 -98)"/><g id="_Group_24" data-name=" Group 24"><path id="_Compound_Path_6" data-name=" Compound Path 6" class="cls-56" d="M448.91,454.17h-.2a.64.64,0,0,1-.25-.56v-2.23a1.52,1.52,0,0,1,.65-1.24l2.32-1.26a.45.45,0,0,1,.45,0,.66.66,0,0,1,.24.57v2.23a1.5,1.5,0,0,1-.64,1.23l-2.32,1.26Zm2.72-5.29h-.2l-2.32,1.27a1.37,1.37,0,0,0-.6,1.11v2.22a.53.53,0,0,0,.2.47.32.32,0,0,0,.35,0l2.32-1.26a1.38,1.38,0,0,0,.6-1.11v-2.23a.54.54,0,0,0-.2-.47Z" transform="translate(-375 -98)"/></g><path id="_Path_225" data-name=" Path 225" class="cls-14" d="M410.74,441.45l-1.13-.6-.82,4.13-.37,2.74h0l.64.33a6.37,6.37,0,0,0,1.73.71c.82,0,.72-.2,1.21-1.28a31.3,31.3,0,0,0,1.07-4.77A21,21,0,0,0,410.74,441.45Z" transform="translate(-375 -98)"/><path id="_Path_226" data-name=" Path 226" class="cls-26" d="M412.08,447.55a6.65,6.65,0,0,0,.34-1.13,1.47,1.47,0,0,1-.59,0l-.79-.3-6.48-3.54v.35a17,17,0,0,0,0,2.47,45,45,0,0,0,6.26,3.29C411.58,448.86,411.48,448.66,412.08,447.55Z" transform="translate(-375 -98)"/><path id="_Path_227" data-name=" Path 227" class="cls-14" d="M433.46,453.21l-.64-.27c-1.66-.74-3.36-1.56-3.36-1.56s-.87,2.82-1,3.69-.7,2.3.76,3l3,1.44Z" transform="translate(-375 -98)"/><path id="_Path_228" data-name=" Path 228" class="cls-26" d="M440.65,459.29s.57-.2,1-2.22a9.43,9.43,0,0,1,.17-1.17A6.32,6.32,0,0,1,438.9,458a5.59,5.59,0,0,1-3.19,0c-.82-.27-5.24-2.15-7.24-3h0c-.15,1.11-.7,2.3.76,3s6.2,2.89,6.2,2.89a8.72,8.72,0,0,0,3.14,0A4.48,4.48,0,0,0,440.65,459.29Z" transform="translate(-375 -98)"/><path id="_Path_229" data-name=" Path 229" class="cls-53" d="M467.83,443.32a2.64,2.64,0,0,1-2.3.77,1.58,1.58,0,0,1-1.14-1.54,2.28,2.28,0,0,1,1.31-1.45,1.79,1.79,0,0,1,1.5-.15,1.43,1.43,0,0,1,1.07,1.53,1.51,1.51,0,0,1-.45.84Z" transform="translate(-375 -98)"/><path id="_Path_230" data-name=" Path 230" class="cls-20" d="M465.4,443.82a23.55,23.55,0,0,0,2.47-1.46s.67-.72.35-1.14-2.75,1.31-2.75,1.31-1.63.52-.84,1S465.4,443.82,465.4,443.82Z" transform="translate(-375 -98)"/><path id="_Path_231" data-name=" Path 231" class="cls-28" d="M406,443.53l-1.58-.87V443a17,17,0,0,0,0,2.47l1.46.87a9.32,9.32,0,0,1,0-1.83C405.92,444.21,406,443.84,406,443.53Z" transform="translate(-375 -98)"/><path id="_Path_232" data-name=" Path 232" class="cls-28" d="M441.62,457.07a9,9,0,0,1,.17-1.16A6.37,6.37,0,0,1,438.9,458a5.66,5.66,0,0,1-2.89,0c-.25,1-.45,2.05-.57,2.82a8.56,8.56,0,0,0,3.11,0,4.41,4.41,0,0,0,2.1-1.61S441.22,459.1,441.62,457.07Z" transform="translate(-375 -98)"/><path id="_Path_233" data-name=" Path 233" class="cls-49" d="M489.18,341a36.57,36.57,0,1,0-42.88,36l6.31,17.41L458.92,377A36.58,36.58,0,0,0,489.18,341Z" transform="translate(-375 -98)"/><path id="_Compound_Path_7" data-name=" Compound Path 7" class="cls-57" d="M475.92,335.71h0a23.92,23.92,0,0,0-46.76,0h0a23.94,23.94,0,1,0,46.76,0ZM452.55,321.4a19.43,19.43,0,0,1,18.84,14.7c-4.57.38-11.87.91-18.82,1a185,185,0,0,1-18.83-.91A19.42,19.42,0,0,1,452.55,321.4Zm-19.39,20.26c.46,0,11.52.22,13.28,5.56A77,77,0,0,1,449.17,360a19.41,19.41,0,0,1-16-18.3Zm23.31,18.2a66.94,66.94,0,0,1,2.3-12.64c1.74-5.66,12.51-5.17,13.16-5.15a19.45,19.45,0,0,1-15.46,17.8Z" transform="translate(-375 -98)"/><path id="_Path_234" data-name=" Path 234" class="cls-49" d="M673.07,134.55a36.55,36.55,0,1,0-42.85,36L636.53,188l6.3-17.46a36.54,36.54,0,0,0,30.24-36Z" transform="translate(-375 -98)"/><path id="_Compound_Path_8" data-name=" Compound Path 8" class="cls-58" d="M654.52,143.74a8.92,8.92,0,0,1-3.7,7.66,17.21,17.21,0,0,1-10.28,2.69H622.41V117.78H639a18,18,0,0,1,10,2.29,7.67,7.67,0,0,1,3.4,6.8,8,8,0,0,1-1.7,5.2,8.68,8.68,0,0,1-5.2,3,11.1,11.1,0,0,1,6.7,2.77A7.91,7.91,0,0,1,654.52,143.74Zm-9.71-15.82a3.85,3.85,0,0,0-1.56-3.46,8.42,8.42,0,0,0-4.61-1H630v9h8.68a7.64,7.64,0,0,0,4.66-1.12,4,4,0,0,0,1.45-3.3Zm2.12,15.17q0-5.09-7.3-5.08H630v10.42h9.88a8.64,8.64,0,0,0,5.34-1.32,4.75,4.75,0,0,0,1.66-4Z" transform="translate(-375 -98)"/><path id="_Path_235" data-name=" Path 235" class="cls-49" d="M743,648.15a36.54,36.54,0,1,0-42.79,36l6.31,17.46,6.31-17.46a36.54,36.54,0,0,0,30.17-36Z" transform="translate(-375 -98)"/><path id="_Compound_Path_9" data-name=" Compound Path 9" class="cls-59" d="M717.21,665.75l-3.13-9.25H700.24l-3.2,9.25h-7.57l13.2-36.2h8.94l13.17,36.2Zm-10.13-30.63-.15.58c-.18.61-.38,1.32-.62,2.11s-1.71,5.13-4.43,13h10.4l-3.57-10.4-1.11-3.5Z" transform="translate(-375 -98)"/></g></g></g></g></svg>